<?xml version="1.0" encoding="UTF-8"?>
<svg id="ALL" xmlns="http://www.w3.org/2000/svg" viewBox="0 0 265.26 130.74">
  <defs>
    <style>
      .cls-1 {
        fill: #242129;
      }
    </style>
  </defs>
  <g id="BCI">
    <rect class="cls-1" x="226.68" y="51.07" width="12.57" height="54.24"/>
    <path class="cls-1" d="M232.94,31.6c-3.8,0-6.89,3.09-6.89,6.89s3.09,6.89,6.89,6.89,6.9-3.09,6.9-6.89-3.09-6.89-6.9-6.89M200.74,63.43c4.22,0,7.63,1.59,11.24,5.22l8.62-9.09c-4.22-4.14-10.24-8.44-19.78-8.44-14.95,0-27.12,12.36-27.12,27.55v.17c0,15.19,12.13,27.55,27.03,27.55,7.53,0,13.9-2.67,19.42-8.14l-8.91-8.63c-3.25,3.06-6.51,4.46-10.34,4.46-8.02,0-14.55-6.88-14.55-15.33v-.17c0-8.5,6.32-15.16,14.38-15.16M161.94,68.34c3.55-3.65,5.24-8.32,5.24-13.09,0-10.94-5.8-20.01-23.09-20.01h-24.47v70.11h24.94c18.42,0,24.78-9.35,24.78-21.12,0-6.26-2.24-12.34-7.39-15.89M132.21,47.68h12.16c7.85,0,9.16,3.74,9.16,7.57s-1.59,7.67-8.41,7.67h-12.91v-15.24ZM144.93,92.93h-12.72v-17.58h12.91c7.76,0,10.66,2.81,10.66,8.89,0,4.3-1.87,8.69-10.84,8.69"/>
    <path class="cls-1" d="M84.15,73.06s10.6,2.81,7.29,17.7h0c-.18.79-.25,1.61-.17,2.46.37,4.4,4.23,7.66,8.63,7.29,4.39-.37,7.66-4.23,7.29-8.63-.73-10.37-20.25-23.05-22.9-22.71,0,0-1.52.05-1.56,2.02-.04,1.56,1.43,1.87,1.43,1.87"/>
    <path class="cls-1" d="M80.87,77.94s6.93,1.84,4.77,11.57h0s-2.29,9.18-16.95,11.59c-16.62,2.73-16.36-3.35-16.36-3.35-.13-3.03-1.28-6.69,15.21-16.68,0,0,8.33-5.06,13.32-3.14"/>
    <path class="cls-1" d="M25.45,102.87c.18,4.69,3.67,8.62,8.29,9.36.63.1,1.28.14,1.93.11,2.63-.1,5.06-1.22,6.85-3.15,1.79-1.93,2.72-4.44,2.62-7.04,0-7.09,3.21-12.45,9.66-17.35,5.85-4.29,14.14-9.54,25.88-16.06,14.57-7.75,24.04-16.91,26.15-24.35l.06-.23c.26-.96.36-1.92.3-2.84-.18-4.68-3.67-8.62-8.29-9.35-.63-.1-1.28-.14-1.93-.12-2.63.1-5.06,1.22-6.85,3.15-1.79,1.93-2.72,4.44-2.62,7.04,0,7.47-4.51,12.42-10.59,18.24-12.97,10.13-24.95,15.18-24.95,15.18-14.58,7.75-24.05,16.9-26.14,24.35l-.06.23c-.26.96-.36,1.92-.3,2.83"/>
    <path class="cls-1" d="M40.93,32.85c.82,13.23,19.13,28.51,30.39,34.74,3.06,1.69,6.79,2.11,8.45,1.6,5.19-2.31-.35-4.36-.35-4.36,0,0-17.8-4.88-12.02-29.89h0c.31-1.32.44-2.71.33-4.13-.56-7.4-7.02-12.94-14.42-12.38-7.4.56-12.94,7.01-12.38,14.41"/>
  </g>
</svg>