<?xml version="1.0" encoding="UTF-8"?>
<svg id="ALL" xmlns="http://www.w3.org/2000/svg" xmlns:xlink="http://www.w3.org/1999/xlink" viewBox="0 0 265.26 130.74">
  <defs>
    <style>
      .cls-1 {
        fill: #212129;
      }
    </style>
    <symbol id="danone" viewBox="0 0 642.42 201.59">
      <g>
        <path class="cls-1" d="M164.05,3.85h-23.66c-37.11,36.89-43.02,112.85-43.02,112.85h25.4c-.08-6.51,3.15-24.38,3.15-24.38h51.3c1.34,3.26,3.32,24.38,3.32,24.38h26.06C198.26,34.11,164.05,3.85,164.05,3.85ZM130.18,71.13c5.87-25.02,21.19-45.96,21.19-45.96,11.23,13.79,21.45,45.96,21.45,45.96h-42.64Z"/>
        <path class="cls-1" d="M.98,2.7s6.39,58.72,0,115.4c0,0,97.53,25.02,101.11-63.32,0,0,8.17-66.89-101.11-52.09ZM26.9,98.57V22.74s50.43-6.77,51.06,37.91-51.06,37.91-51.06,37.91Z"/>
        <path class="cls-1" d="M210.69,116.7V3.85h21.28s36.94,30,51.23,54.68V3.85h24.85v112.85h-21.96s-14.3-46.77-50.55-77.06l.34,77.06h-25.19Z"/>
        <path class="cls-1" d="M371.03,1.17c-31.77,0-57.53,26.9-57.53,60.09s25.76,60.09,57.53,60.09,57.53-26.9,57.53-60.09S402.8,1.17,371.03,1.17ZM370.77,98.49c-18.75,0-33.96-17.11-33.96-38.21s15.2-38.21,33.96-38.21,33.96,17.11,33.96,38.21-15.2,38.21-33.96,38.21Z"/>
        <path class="cls-1" d="M434.11,116.7V3.85h21.28s36.94,30,51.23,54.68V3.85h24.85v112.85h-21.96s-14.3-46.77-50.55-77.06l.34,77.06h-25.19Z"/>
        <path class="cls-1" d="M595.11,1.17c-57.45-3.06-58.47,54.13-58.47,54.13,0,0-6.38,68,55.15,66.04,0,0,30.13,2.64,47.49-25.45l-23.74-5.87c-1.24,3.18-42.53,28.17-53.62-20.17h79.66s10.98-65.62-46.47-68.68ZM563.42,49.94s1.28-28.09,28.47-27.87c27.19.21,28.47,27.87,28.47,27.87h-56.94Z"/>
        <path class="cls-1" d="M148.47,140.15c-1.25-.83-3.76-8.48,3.51-4.85,16.53,8.26,41.34,24.51,77.34,32,34.51,8,100.77,21.53,175.4,2.89,0,0,60.62-16.37,86.64-34.38,4.43-3.06,10.89-.34,3.28,5.28-19.83,14.62-84.64,44.94-87.57,45.19-4.48.39-72.89,37.28-181.66-4.85,0,0-26.64-7.83-76.94-41.28Z"/>
        <path class="cls-1" d="M163.06,3.29h-23.66c-37.11,36.89-43.02,112.85-43.02,112.85h25.4c-.08-6.51,3.15-24.38,3.15-24.38h51.3c1.34,3.26,3.32,24.38,3.32,24.38h26.06C197.28,33.54,163.06,3.29,163.06,3.29ZM129.19,70.57c5.87-25.02,21.19-45.96,21.19-45.96,11.23,13.79,21.45,45.96,21.45,45.96h-42.64Z"/>
        <path class="cls-1" d="M0,2.14s6.39,58.72,0,115.4c0,0,97.53,25.02,101.11-63.32,0,0,8.17-66.89-101.11-52.09ZM25.91,98.01V22.18s50.43-6.77,51.06,37.91-51.06,37.91-51.06,37.91Z"/>
        <path class="cls-1" d="M209.7,116.14V3.29h21.28s36.94,30,51.23,54.68V3.29h24.85v112.85h-21.96s-14.3-46.77-50.55-77.06l.34,77.06h-25.19Z"/>
        <path class="cls-1" d="M370.04.61c-31.77,0-57.53,26.9-57.53,60.09s25.76,60.09,57.53,60.09,57.53-26.9,57.53-60.09S401.82.61,370.04.61ZM369.79,97.93c-18.75,0-33.96-17.11-33.96-38.21s15.2-38.21,33.96-38.21,33.96,17.11,33.96,38.21-15.2,38.21-33.96,38.21Z"/>
        <path class="cls-1" d="M433.13,116.14V3.29h21.28s36.94,30,51.23,54.68V3.29h24.85v112.85h-21.96s-14.3-46.77-50.55-77.06l.34,77.06h-25.19Z"/>
        <path class="cls-1" d="M594.13.61c-57.45-3.06-58.47,54.13-58.47,54.13,0,0-6.38,68,55.15,66.04,0,0,30.13,2.64,47.49-25.45l-23.74-5.87c-1.24,3.18-42.53,28.17-53.62-20.17h79.66S651.57,3.67,594.13.61ZM562.43,49.37s1.28-28.09,28.47-27.87c27.19.21,28.47,27.87,28.47,27.87h-56.94Z"/>
        <path class="cls-1" d="M147.49,139.59c-1.25-.83-3.76-8.48,3.51-4.85,16.53,8.26,41.34,24.51,77.34,32,34.51,8,100.77,21.53,175.4,2.89,0,0,60.62-16.37,86.64-34.38,4.43-3.06,10.89-.34,3.28,5.28-19.83,14.62-84.64,44.94-87.57,45.19-4.48.39-72.89,37.28-181.66-4.85,0,0-26.64-7.83-76.94-41.28Z"/>
      </g>
    </symbol>
  </defs>
  <g id="DANONE">
    <use width="642.42" height="201.59" transform="translate(14.61 28.07) scale(.37)" xlink:href="#danone"/>
  </g>
</svg>