<?xml version="1.0" encoding="UTF-8"?>
<svg id="ALL" xmlns="http://www.w3.org/2000/svg" viewBox="0 0 265.26 130.74">
  <defs>
    <style>
      .cls-1 {
        fill: #242129;
      }
    </style>
  </defs>
  <path id="HISENSE" class="cls-1" d="M104.81,63.02s-6.69-1.3-12.52-1.51-6.69,1.73-4.32,2.59c2.38.86,12.31,5.4,14.03,6.48,1.73,1.08,5.09,3.86,3.91,7.69-.73,2.78-3.45,5.61-12.04,6.2-7.92.72-20.15-1.01-20.15-1.01l.58-6.26s8.35,1.51,13.74,1.51,6.26-1.8,3.67-2.88-9.79-3.67-13.17-5.54c-3.38-1.87-4.39-4.75-4.17-6.84.16-2.38,2.21-6.64,10.29-7.34,7.48-.58,11.26-.25,20.98.97l-.54,5.87M216.21,63.02s-6.69-1.3-12.52-1.51c-5.83-.22-6.69,1.73-4.32,2.59,2.38.86,12.31,5.4,14.03,6.48,1.73,1.08,5.09,3.86,3.91,7.69-.73,2.78-3.45,5.61-12.04,6.2-7.92.72-20.15-1.01-20.15-1.01l.58-6.26s8.35,1.51,13.74,1.51,6.26-1.8,3.67-2.88-9.79-3.67-13.17-5.54c-3.38-1.87-4.39-4.75-4.17-6.84.16-2.38,2.21-6.64,10.29-7.34,7.48-.58,11.26-.25,20.98.97l-.54,5.87M141.37,60.72c-4.89-4.61-9.07-4.88-13.53-4.88s-19,1.57-19,15.82,19.21,13.14,19.21,13.14c0,0,6.23.24,14.19-1.48l.72-5.9s-4.61,1.73-12.38,1.44-9.5-2.73-10.51-6.33h24.18s2.02-7.2-2.88-11.8h0ZM120.77,67.12c0-1.51,1.25-5.63,7.51-5.63s6.38,5.63,6.38,5.63h-13.89ZM252.55,60.72c-4.89-4.61-9.07-4.88-13.53-4.88s-19,1.57-19,15.82,19.21,13.14,19.21,13.14c0,0,6.23.24,14.19-1.48l.72-5.9s-4.61,1.73-12.38,1.44-9.5-2.73-10.51-6.33h24.18s2.02-7.2-2.88-11.8h0ZM231.95,67.12c0-1.51,1.25-5.63,7.51-5.63s6.38,5.63,6.38,5.63h-13.89ZM148.96,57.19l-1.4,27.45h11.23l1.3-21.91s1.13-.76,5.51-.76,5.18,1.53,5.23,2.34-1.3,20.32-1.3,20.32h11.28s1.72-18.59.85-23.19-7.33-5.21-8.34-5.27c-2.88-.18-13.64-.72-24.36,1.01h0ZM58.61,55.96h11.93l-2.1,28.68h-11.98l2.16-28.68ZM59.37,46.07l-.55,7.14h11.98l.41-5.7s-.18-1.58-2.23-1.58-9.61.14-9.61.14h0ZM51.41,45.93c-2.05,0-9.61.14-9.61.14l-.55,7.14-.45,6.03h-17.49l.45-6.03.41-5.7s-.18-1.58-2.23-1.58-9.61.14-9.61.14l-.55,7.14-2.37,31.43h11.98l1.29-17.12h17.49l-1.29,17.12h11.98l2.36-31.43.41-5.7s-.18-1.58-2.23-1.58h0Z"/>
</svg>