<?xml version="1.0" encoding="UTF-8"?>
<svg id="ALL" xmlns="http://www.w3.org/2000/svg" viewBox="0 0 265.26 130.74">
  <defs>
    <style>
      .cls-1 {
        fill: #242129;
      }
    </style>
  </defs>
  <g id="LA_ROCHE" data-name="LA ROCHE">
    <path class="cls-1" d="M169.36,71.34h-7.55v8.72h-3.06v-22.16h10.61c4.36,0,6.99,3.23,6.99,6.72s-2.63,6.72-6.99,6.72M169.1,60.43h-7.29v8.42h7.29c2.53,0,4.16-1.76,4.16-4.23s-1.9-4.19-4.16-4.19"/>
    <path class="cls-1" d="M186.46,80.43c-6.26,0-10.75-5.16-10.75-11.41s4.49-11.45,10.75-11.45,10.75,5.19,10.75,11.45-4.49,11.41-10.75,11.41M186.46,60.23c-4.66,0-7.72,3.76-7.72,8.78s3.06,8.75,7.72,8.75,7.69-3.73,7.69-8.75-3.03-8.78-7.69-8.78"/>
    <path class="cls-1" d="M205.89,80.43c-2.93,0-6.02-.6-8.98-1.8l.67-2.36c2.7.93,5.69,1.56,8.25,1.56,3.59,0,5.66-1.4,5.66-3.36,0-1.76-1.06-2.66-6.12-4.52-5.82-2.16-7.69-3.66-7.69-7.09,0-3.63,2.96-5.29,8.42-5.29,2.3,0,5.62.43,7.79,1.13l-.57,2.43c-2.23-.57-4.86-.93-7.15-.93-3.93,0-5.46.63-5.46,2.66,0,2.13,1.43,2.83,6.69,4.89,5.72,2.26,7.12,3.53,7.12,6.65,0,3.53-3.36,6.02-8.62,6.02"/>
    <path class="cls-1" d="M230.55,80.06l-2.2-5.62h-9.92l-2.23,5.62h-3.03l8.92-22.16h2.56l8.92,22.16h-3.03ZM223.39,61.23l-4.13,10.85h8.22l-4.09-10.85Z"/>
    <polygon class="cls-1" points="239.96 71.14 239.96 80.06 236.9 80.06 236.9 71.14 228.42 57.9 231.58 57.9 238.43 68.41 245.25 57.9 248.42 57.9 239.96 71.14"/>
    <polygon class="cls-1" points="16.85 80.06 16.85 57.9 19.91 57.9 19.91 77.43 31.22 77.43 31.22 80.06 16.85 80.06"/>
    <path class="cls-1" d="M47.89,80.06l-2.2-5.62h-9.92l-2.23,5.62h-3.03l8.92-22.16h2.56l8.92,22.16h-3.03ZM40.74,61.23l-4.13,10.85h8.22l-4.09-10.85Z"/>
    <path class="cls-1" d="M72.25,80.06l-6.62-9.02h-6.66v9.02h-3.06v-22.16h10.75c4.26,0,6.92,3.13,6.92,6.59,0,2.76-1.66,5.29-4.63,6.16l6.92,9.42h-3.63ZM66.29,60.43h-7.32v8.15h7.32c2.53,0,4.19-1.63,4.19-4.09s-1.93-4.06-4.19-4.06"/>
    <path class="cls-1" d="M84.99,80.43c-6.26,0-10.75-5.16-10.75-11.41s4.49-11.45,10.75-11.45,10.75,5.19,10.75,11.45-4.49,11.41-10.75,11.41M84.99,60.23c-4.66,0-7.72,3.76-7.72,8.78s3.06,8.75,7.72,8.75,7.69-3.73,7.69-8.75-3.03-8.78-7.69-8.78"/>
    <path class="cls-1" d="M112.97,60.86c-1.43-.4-3.29-.63-4.89-.63-5.76,0-9.42,3.56-9.42,8.75s3.66,8.78,9.42,8.78c1.46,0,3.06-.23,4.89-.67l.6,2.46c-1.76.53-3.73.87-5.69.87-7.15,0-12.28-5.09-12.28-11.45s5.12-11.41,12.28-11.41c2.1,0,3.89.23,5.72.83l-.63,2.46Z"/>
    <path class="cls-1" d="M126.86,35.67v31.68h3.25v-9.45h3.09v22.16h-3.09v-10.02h-3.25v10.06h31.82v-44.44h-31.82ZM151.23,60.53h-12.21v6.75h11.45v2.63h-11.45v7.52h12.21v2.63h-15.31v-22.16h15.31v2.63Z"/>
    <polygon class="cls-1" points="55.65 92.64 55.65 83.97 56.44 83.97 56.44 91.96 60.99 91.96 60.99 92.64 55.65 92.64"/>
    <path class="cls-1" d="M67.89,92.64l-.96-2.42h-4.26l-.96,2.42h-.79l3.59-8.67h.57l3.61,8.67h-.79ZM64.79,84.92l-1.86,4.66h3.74l-1.87-4.66Z"/>
    <path class="cls-1" d="M72.9,92.64h-3.92v-8.67h3.49c1.87,0,2.8.88,2.8,2.21,0,.78-.47,1.57-1.37,1.9,1.11.35,1.63,1.15,1.63,2.15,0,1.25-.95,2.41-2.63,2.41M72.5,84.65h-2.73v3.19h2.68c1.09,0,2.03-.48,2.03-1.59s-.81-1.6-1.98-1.6M72.82,88.49h-3.06v3.47h3.08c1.13,0,1.9-.62,1.9-1.73,0-1-.62-1.74-1.93-1.74"/>
    <path class="cls-1" d="M79.73,92.78c-2.43,0-4.09-2.03-4.09-4.46s1.65-4.48,4.09-4.48,4.09,2.04,4.09,4.48-1.65,4.46-4.09,4.46M79.73,84.52c-1.95,0-3.31,1.63-3.31,3.8s1.35,3.79,3.31,3.79,3.31-1.61,3.31-3.79-1.35-3.8-3.31-3.8"/>
    <path class="cls-1" d="M91.23,92.64l-2.77-3.76h-3.02v3.76h-.78v-8.67h3.92c1.68,0,2.63,1.18,2.63,2.46,0,1.08-.69,2.1-1.93,2.37l2.84,3.84h-.89ZM88.57,84.65h-3.14v3.58h3.14c1.16,0,1.85-.72,1.85-1.8s-.86-1.78-1.85-1.78"/>
    <path class="cls-1" d="M98.82,92.64l-.96-2.42h-4.26l-.96,2.42h-.79l3.59-8.67h.57l3.61,8.67h-.79ZM95.72,84.92l-1.86,4.66h3.74l-1.87-4.66Z"/>
    <polygon class="cls-1" points="102.04 84.65 102.04 92.64 101.26 92.64 101.26 84.65 98.28 84.65 98.28 83.97 105.02 83.97 105.02 84.65 102.04 84.65"/>
    <path class="cls-1" d="M108.58,92.78c-2.43,0-4.09-2.03-4.09-4.46s1.65-4.48,4.09-4.48,4.09,2.04,4.09,4.48-1.65,4.46-4.09,4.46M108.58,84.52c-1.95,0-3.31,1.63-3.31,3.8s1.35,3.79,3.31,3.79,3.31-1.61,3.31-3.79-1.35-3.8-3.31-3.8"/>
    <rect class="cls-1" x="113.56" y="83.97" width=".78" height="8.67"/>
    <path class="cls-1" d="M122.4,92.64l-2.77-3.76h-3.02v3.76h-.78v-8.67h3.92c1.68,0,2.63,1.18,2.63,2.46,0,1.08-.69,2.1-1.93,2.37l2.84,3.84h-.89ZM119.75,84.65h-3.14v3.58h3.14c1.16,0,1.85-.72,1.85-1.8s-.86-1.78-1.85-1.78"/>
    <polygon class="cls-1" points="123.73 92.64 123.73 83.97 129.51 83.97 129.51 84.65 124.52 84.65 124.52 87.81 129.18 87.81 129.18 88.49 124.52 88.49 124.52 91.96 129.51 91.96 129.51 92.64 123.73 92.64"/>
    <path class="cls-1" d="M133.82,92.64h-1.73v-8.67h1.73c2.95,0,5.1,1.83,5.1,4.33s-2.15,4.33-5.1,4.33M133.94,84.65h-1.07v7.31h1.07c2.1,0,4.19-1.33,4.19-3.66s-2.1-3.66-4.19-3.66"/>
    <polygon class="cls-1" points="139.55 92.64 139.55 83.97 145.32 83.97 145.32 84.65 140.34 84.65 140.34 87.81 145 87.81 145 88.49 140.34 88.49 140.34 91.96 145.32 91.96 145.32 92.64 139.55 92.64"/>
    <path class="cls-1" d="M152.93,92.64l-2.77-3.76h-3.02v3.76h-.78v-8.67h3.92c1.68,0,2.63,1.18,2.63,2.46,0,1.08-.69,2.1-1.93,2.37l2.84,3.84h-.88ZM150.27,84.65h-3.14v3.58h3.14c1.16,0,1.85-.72,1.85-1.8s-.86-1.78-1.85-1.78"/>
    <polygon class="cls-1" points="161.5 92.64 161.5 85.4 158.5 91.49 158 91.49 155 85.4 155 92.64 154.24 92.64 154.24 83.97 155 83.97 158.25 90.46 161.5 83.97 162.26 83.97 162.26 92.64 161.5 92.64"/>
    <path class="cls-1" d="M169.55,92.64l-.96-2.42h-4.26l-.96,2.42h-.79l3.59-8.67h.57l3.61,8.67h-.79ZM166.45,84.92l-1.86,4.66h3.74l-1.87-4.66Z"/>
    <polygon class="cls-1" points="172.78 84.65 172.78 92.64 172 92.64 172 84.65 169.01 84.65 169.01 83.97 175.76 83.97 175.76 84.65 172.78 84.65"/>
    <path class="cls-1" d="M179.31,92.78c-2.43,0-4.09-2.03-4.09-4.46s1.65-4.48,4.09-4.48,4.09,2.04,4.09,4.48-1.65,4.46-4.09,4.46M179.31,84.52c-1.95,0-3.31,1.63-3.31,3.8s1.35,3.79,3.31,3.79,3.31-1.61,3.31-3.79-1.35-3.8-3.31-3.8"/>
    <polygon class="cls-1" points="184.23 92.64 184.23 83.97 185.01 83.97 185.01 91.96 189.57 91.96 189.57 92.64 184.23 92.64"/>
    <path class="cls-1" d="M193.24,92.78c-2.43,0-4.09-2.03-4.09-4.46s1.65-4.48,4.09-4.48,4.09,2.04,4.09,4.48-1.65,4.46-4.09,4.46M193.24,84.52c-1.95,0-3.31,1.63-3.31,3.8s1.35,3.79,3.31,3.79,3.31-1.61,3.31-3.79-1.35-3.8-3.31-3.8"/>
    <path class="cls-1" d="M202.15,92.78c-2.76,0-4.78-1.98-4.78-4.48s1.82-4.46,4.76-4.46c.7,0,1.59.09,2.25.27l-.12.64c-.77-.17-1.48-.23-2.16-.23-2.3,0-3.96,1.42-3.96,3.79s1.72,3.8,3.96,3.8c.53,0,1.22-.07,1.87-.2v-3.1h.7v3.59c-.82.26-1.84.38-2.54.38"/>
    <rect class="cls-1" x="205.92" y="83.97" width=".78" height="8.67"/>
    <path class="cls-1" d="M211.99,92.77v2.3h-.79v-2.3c-2.23-.21-3.7-2.16-3.7-4.46,0-2.43,1.67-4.46,4.1-4.46s4.09,2.03,4.09,4.46c0,2.3-1.47,4.26-3.7,4.46M211.6,84.52c-1.95,0-3.31,1.61-3.31,3.79s1.35,3.8,3.31,3.8,3.31-1.63,3.31-3.8-1.35-3.79-3.31-3.79"/>
    <path class="cls-1" d="M219.8,92.78c-2.2,0-3.42-1.54-3.42-3.18v-5.64h.79v5.69c0,1.56,1.11,2.45,2.63,2.45s2.63-.99,2.63-2.45v-5.69h.78v5.64c0,1.65-1.21,3.18-3.41,3.18"/>
    <polygon class="cls-1" points="224.49 92.64 224.49 83.97 230.27 83.97 230.27 84.65 225.28 84.65 225.28 87.81 229.94 87.81 229.94 88.49 225.28 88.49 225.28 91.96 230.27 91.96 230.27 92.64 224.49 92.64"/>
    <path class="cls-1" d="M126.6,70.03h-5.79s0,10.01,0,10.01h-3.06v-22.16h3.06v9.45h5.79v2.7Z"/>
  </g>
</svg>