<?xml version="1.0" encoding="UTF-8"?>
<svg id="ALL" xmlns="http://www.w3.org/2000/svg" viewBox="0 0 265.26 130.74">
  <defs>
    <style>
      .cls-1 {
        fill: #242129;
        fill-rule: evenodd;
      }
    </style>
  </defs>
  <g id="LOREAL">
    <polygon class="cls-1" points="49.08 78.3 49.08 83.14 18.86 83.14 18.86 49.91 24.3 49.91 24.3 78.3 49.08 78.3 49.08 78.3"/>
    <polygon class="cls-1" points="44.85 61.99 50.89 50.51 45.15 50.51 40.62 61.99 44.85 61.99 44.85 61.99"/>
    <path class="cls-1" d="M94.25,55.36c-1.96-3.08-4.82-5.67-8.19-7.44-3.37-1.77-7.25-2.71-11.13-2.71s-7.76.94-11.13,2.71c-3.37,1.77-6.23,4.36-8.19,7.44-1.96,3.08-3.02,6.66-3.02,10.23s1.06,7.15,3.02,10.23c1.96,3.08,4.82,5.67,8.19,7.44,3.37,1.77,7.25,2.71,11.13,2.71s7.76-.94,11.13-2.71c3.37-1.77,6.23-4.36,8.19-7.44,1.96-3.08,3.02-6.66,3.02-10.23s-1.06-7.15-3.02-10.23h0ZM89.55,73.73c-1.46,2.42-3.6,4.46-6.13,5.85-2.52,1.39-5.43,2.13-8.34,2.13s-5.82-.74-8.34-2.13c-2.52-1.39-4.66-3.43-6.13-5.85-1.46-2.42-2.25-5.22-2.25-8.01s.79-5.6,2.25-8.01c1.46-2.42,3.6-4.46,6.13-5.85,2.52-1.39,5.43-2.13,8.34-2.13s5.82.74,8.34,2.13c2.52,1.39,4.66,3.43,6.13,5.85,1.46,2.42,2.25,5.22,2.25,8.01s-.79,5.6-2.25,8.01h0Z"/>
    <path class="cls-1" d="M135.2,64.24c-.98,2.17-2.84,3.42-4.3,4.17-1.46.76-2.51,1.02-3.56.98h0l10.58,13.75h-6.04l-10.23-13.29h-13.34v13.29h-5.44v-33.23h21.76c2.2,0,4.43.43,6.4,1.54,1.97,1.11,3.67,2.79,4.47,5.17.8,2.38.7,5.46-.29,7.62h0ZM129.12,64.01c1.15-.97,1.82-2.56,1.76-4.14-.06-1.58-.85-3.14-1.99-4.1-1.14-.95-2.59-1.03-3.97-1.03h-16.62v10.27h16.62c1.47,0,3.05-.03,4.2-1h0Z"/>
    <polygon class="cls-1" points="166.62 64.11 166.62 68.64 148.19 68.64 148.19 78.3 172.97 78.3 172.97 83.14 142.75 83.14 142.75 49.91 172.97 49.91 172.97 54.74 148.19 54.74 148.19 64.11 166.62 64.11 166.62 64.11"/>
    <polygon class="cls-1" points="166.93 44.77 158.77 44.77 155.44 49 166.93 44.77 166.93 44.77"/>
    <path class="cls-1" d="M183.62,74.68l-4.31,8.46h-5.44l16.92-33.23h5.44l16.92,33.23h-5.44l-4.31-8.46h-19.79ZM193.52,55.25l-7.74,15.2h15.48l-7.74-15.2h0Z"/>
    <polygon class="cls-1" points="246.1 78.3 246.1 83.14 215.88 83.14 215.88 49.91 221.32 49.91 221.32 78.3 246.1 78.3 246.1 78.3"/>
    <path class="cls-1" d="M243.74,56.57l-.05-.79h0c0-.15,0-.29-.05-.46-.06-.16-.16-.35-.27-.46-.11-.12-.22-.17-.34-.19.22-.08.42-.23.56-.46.14-.23.23-.53.22-.85,0-.32-.1-.67-.27-.92-.37-.54-1.02-.64-1.6-.61h-2.41v5.55h.93v-2.28h1.4c.15,0,.41-.02.66.18.34.4.19.92.25,1.36,0,.26.03.52.14.74h1.05v-.17h0c-.19-.08-.21-.36-.23-.64h0ZM242.59,54.13c-.29.19-.59.19-.8.18h-1.32v-1.69h0c.57,0,1.15-.02,1.72.02.22.03.48.15.62.44.12.37.13.76-.23,1.05h0Z"/>
    <path class="cls-1" d="M245.77,52.25c-.41-.71-1.01-1.31-1.72-1.71-.71-.41-1.53-.63-2.34-.63s-1.63.22-2.34.63c-.71.41-1.31,1.01-1.72,1.71-.41.71-.63,1.52-.63,2.34s.22,1.63.63,2.34c.41.71,1.01,1.31,1.72,1.71.71.41,1.53.63,2.34.63s1.63-.22,2.34-.63c.71-.41,1.31-1.01,1.72-1.71.41-.71.63-1.52.63-2.34s-.22-1.63-.63-2.34h0ZM245.21,56.62c-.35.6-.86,1.11-1.46,1.45-.6.35-1.3.53-1.99.53s-1.39-.19-1.99-.53c-.6-.35-1.11-.85-1.46-1.45-.35-.6-.53-1.29-.53-1.99s.19-1.39.53-1.99c.35-.6.86-1.11,1.46-1.45.6-.35,1.3-.53,1.99-.53s1.39.19,1.99.53c.6.35,1.11.85,1.46,1.45.35.6.53,1.29.53,1.99s-.19,1.39-.53,1.99h0Z"/>
  </g>
</svg>