<?xml version="1.0" encoding="UTF-8"?>
<svg id="ALL" xmlns="http://www.w3.org/2000/svg" viewBox="0 0 265.26 130.74">
  <defs>
    <style>
      .cls-1 {
        fill: #242129;
      }
    </style>
  </defs>
  <g id="METROGAS">
    <g id="g12">
      <path id="path10" class="cls-1" d="M52.48,84.48l-4.16-38.12h-13.6s-1.39,5.88-2.09,9.67c-.74,4.13-1.69,10.76-1.69,10.76,0,0-.84-6.57-1.57-10.71-.6-3.78-1.81-9.71-1.81-9.71h-13.44l-4.68,38.12h11.83s.47-7.23.69-11.86c.16-4.64.27-12.02.27-12.02,0,0,1.22,7.43,1.95,12.11.85,4.59,2.17,11.77,2.17,11.77h8.92s1.58-7.92,2.58-12.89c.73-4.29,1.92-11.03,1.92-11.03,0,0,.14,6.73.36,10.91.27,5.09.95,13.01.95,13.01h11.42Z"/>
    </g>
    <polygon id="polygon14" class="cls-1" points="76.31 84.48 76.31 75.37 66.94 75.37 66.94 69.63 75.35 69.63 75.35 60.6 66.94 60.6 66.94 55.48 76.37 55.48 76.37 46.35 56.23 46.35 56.23 84.48 76.31 84.48"/>
    <polygon id="polygon16" class="cls-1" points="86.45 55.48 86.45 84.48 97.47 84.48 97.47 55.48 103.71 55.48 103.71 46.35 80.46 46.35 80.46 55.48 86.45 55.48"/>
    <g id="g26">
      <path id="path18" class="cls-1" d="M201.03,66.14v-3.64h-15.26v7.98h4.02v1.14c0,2.21-1.96,4.54-3.77,4.45-4.71-.31-4.12-8.14-4.12-10.82-.07-3.95.31-10.27,4.5-10.38,1.36-.06,2.96,1.54,3.33,3.85l10.39-3.69-.37-.7c-3.13-6.3-7.95-8.69-13.57-8.69-11.39.07-15.79,10.52-15.52,20.25.16,9.4,3.76,18.98,15.78,19.33,11.03.29,14.57-10.02,14.57-19.09"/>
      <path id="path20" class="cls-1" d="M255.84,72.2c.25-9.25-10.33-11.21-10.26-14.99,0-.99.99-2.34,2.85-2.29,2.07.06,3.92,1.3,4.77,2.25l1.58,1.69v-11.4l-1.37-.61c-.42-.21-3.97-1.3-6.58-1.35-7.15-.09-11.7,5.83-12.02,12.66-.36,8.73,10.28,11.52,10.21,14.61,0,.99.28,2.95-3.12,3.29-.6.04-3.76-.05-5.99-3.1l-.96-1.2v11.71l1.49.61c.74.29,4.07,1.09,6.72,1.04,8.52-.15,12.41-6.1,12.66-12.93"/>
      <path id="path22" class="cls-1" d="M124.21,58.91c-.05,2.34-1.48,4.98-3.96,4.98h-1.23v-9.47h1c2.13,0,4.19,1.65,4.19,4.49M136.78,84.48l-8.05-15.93,1.04-.51c3.88-1.79,5.1-5.48,5.16-9.12.1-7.07-3.04-12.56-16.13-12.56h-10.71v38.12h10.93v-15.6s2.22,6.23,3.76,10.11c.84,2.1,2.28,5.48,2.28,5.48h11.72,0Z"/>
      <path id="path24" class="cls-1" d="M156.24,65.69c0,4.24-.94,10.47-4.21,10.23-3.55-.26-4.42-6.2-4.36-10.58.05-4.24,1.22-10.01,4.28-10.06,3.52-.11,4.29,6.08,4.29,10.41M167.65,65.94c.2-9.91-5.03-20.63-16.49-20.29-9.83.31-14.62,10.38-14.62,19.6s4.35,19.69,15.32,19.92c10.65.2,15.63-9.87,15.79-19.23"/>
    </g>
    <path id="path28" class="cls-1" d="M219,71.62h-4.71l2.59-15.99,2.12,15.99ZM232.47,84.48l-8.79-38.12h-13.34l-9.59,38.12h11.22l1.01-4.83h7.42l.8,4.83h11.28Z"/>
  </g>
</svg>