<?xml version="1.0" encoding="UTF-8"?>
<svg id="ALL" xmlns="http://www.w3.org/2000/svg" viewBox="0 0 265.26 130.74">
  <defs>
    <style>
      .cls-1 {
        fill: #242129;
      }
    </style>
  </defs>
  <path class="cls-1" d="M218.6,8.59c0-.56-.18-1.02-.55-1.38s-.95-.53-1.73-.53h-2.83v6.52h1.17v-2.68h1.65l1.01,2.68h1.24l-1.14-2.88c.78-.32,1.18-.89,1.18-1.73ZM217.07,9.31c-.21.18-.52.27-.95.27h-1.46v-1.96h1.56c.37,0,.65.09.85.26.2.18.31.41.31.7,0,.31-.1.56-.31.74ZM216.04,4.51c-2.99,0-5.43,2.44-5.43,5.43s2.44,5.43,5.43,5.43,5.43-2.44,5.43-5.43-2.44-5.43-5.43-5.43ZM216.04,14.49c-2.51,0-4.55-2.04-4.55-4.55s2.04-4.55,4.55-4.55,4.55,2.04,4.55,4.55-2.04,4.55-4.55,4.55Z"/>
  <path id="NIKE" class="cls-1" d="M116.42,65.96c3.86-10.57,18.39-50.4,21.76-59.76.34-.96.9-1.21,1.82-1.21h12.56c1.74,0,1.88.21,1.26,1.93-2.29,6.34-7.27,20.11-7.44,20.66l.46.27c.87-1.28,10.37-15.65,14.32-21.51.42-.62,1.32-1.28,2.02-1.28h12.88c.35,0,1.03-.05,1.14.27.05.16-.07.33-.23.56-2.73,3.89-13.98,19.82-18.16,25.86-.61.88-1.04,2.06-1.1,3.13-.64,10.47-1.18,20.95-1.76,31.43-.12,2.09-.2,2.17-2.32,2.17-4.35,0-8.7,0-13.05,0-2.22,0-2.23-.06-1.97-2.2.87-7.23,1.73-14.47,2.57-21.7.06-.53,0-1.07-.28-1.72-.31.68-6.28,16.62-8.89,23.94-.47,1.32-1.2,1.71-2.53,1.71-3.85,0-7.5,0-11.25,0-2.6,0-2.67-.15-1.8-2.54h0ZM97.24,68.47c4.24.01,8.34.01,12.72,0,1.23,0,1.9-.41,2.3-1.56.89-2.55,19.21-52.82,22.03-60.64.19-.53.29-.74.18-.97-.14-.28-.72-.24-1.03-.24h-13.29c-1.42,0-1.99.76-2.23,1.36-1.43,3.64-15.99,43.82-21.95,60.22-.57,1.57-.39,1.82,1.27,1.83h0ZM56.33,68.47h9.95c1.64,0,2.41-.53,2.95-2.05,3.54-9.93,7.17-19.84,10.77-29.75.24-.67.57-1.3.86-1.95.34.64.39,1.16.34,1.67-1.02,10.01-2.06,20.01-3.09,30.02-.2,1.95-.12,2.07,1.86,2.07h10.11c1.32,0,1.92-.49,2.36-1.7,6.62-18.25,21.37-58.78,22.12-60.89.07-.2.16-.43-.06-.67-.22-.24-.58-.23-.87-.23h-11.42c-1.13,0-1.45.68-1.77,1.55-2.46,6.8-9.33,25.53-10.28,28.1l-.48-.15s1.14-18.97,1.78-27.48c.12-1.62-.41-2.05-1.98-2.05h-10.11c-1.3,0-1.92.45-2.36,1.67-7.25,20.04-14.54,40.06-21.85,60.08-.48,1.32-.24,1.76,1.18,1.76h0ZM187.26,63.33c.84-2.65,1.7-5.36,1.77-5.55.7-1.93.63-2.06-1.36-2.06-2.66-.01-10.1.01-10.1.01,0,0,3.31-8.95,4.52-12.5.41-1.19,1.04-1.55,2.26-1.54,2.49.03,5-.02,7.5,0,.9,0,1.53-.2,1.87-1.18,1.09-3.13,2.25-6.24,3.41-9.35.47-1.27.16-1.82-1.25-1.79-2.34.04-4.68-.02-7.01,0-1.22.01-1.54-.44-1.1-1.6,1.06-2.8,2.09-5.6,3.05-8.44.38-1.11,1-1.51,2.15-1.51h8.32c1.03,0,1.57-.68,1.8-1.25,1.34-3.33,2.51-6.72,3.72-10.1.13-.38.13-.6-.22-1.05-.37-.48-1.22-.46-1.3-.46-7.94,0-15.88.06-23.82,0-1.48-.01-2.05.59-2.52,1.89-3.88,10.8-18.41,50.64-21.73,59.79-.6,1.66-.44,1.84,1.37,1.86.66,0,4.15.01,8.4.01-34.47,8.84-69.76,17.91-81.97,21.08-8.34,2.16-16.74,3.58-25.38,1.33-10.72-2.79-16.74-11.06-14.87-21.91.96-5.56,3.13-10.92,4.86-16.33.53-1.65,1.41-3.19,2.13-4.78-9.38,7.67-16.89,16.76-22.9,26.92-3.63,6.14-6.93,12.74-8.85,19.56-4.27,15.13,3.18,27.2,17.93,30.49,2.53.56,5.16.84,7.75.89,13.84.22,26.7-3.92,39.24-9.2,40.26-16.96,147.92-62.5,161.51-68.25-.01-.1-26.99,6.77-59.18,15.01h0Z"/>
</svg>