<?xml version="1.0" encoding="UTF-8"?>
<svg id="ALL" xmlns="http://www.w3.org/2000/svg" viewBox="0 0 265.26 130.74">
  <defs>
    <style>
      .cls-1 {
        fill: #242129;
      }
    </style>
  </defs>
  <g id="OPPO">
    <path class="cls-1" d="M76.2,83.67c-2.55,5.32-6.14,9.47-10.76,12.46-4.62,2.98-9.92,4.47-15.88,4.47s-11.26-1.49-15.88-4.47c-4.62-2.98-8.21-7.13-10.76-12.46-2.55-5.32-3.83-11.42-3.83-18.3s1.28-12.98,3.83-18.3c2.55-5.32,6.14-9.47,10.76-12.46,4.62-2.98,9.92-4.47,15.88-4.47s11.26,1.49,15.88,4.47c4.62,2.98,8.21,7.13,10.76,12.46,2.55,5.32,3.83,11.42,3.83,18.3s-1.28,12.98-3.83,18.3ZM32.79,78.91c1.61,3.92,3.87,6.96,6.77,9.11,2.9,2.15,6.23,3.22,10,3.22s7.09-1.07,10-3.22c2.9-2.15,5.16-5.19,6.77-9.11,1.61-3.92,2.42-8.44,2.42-13.54s-.81-9.62-2.42-13.54c-1.61-3.92-3.87-6.96-6.77-9.11-2.9-2.15-6.24-3.22-10-3.22s-7.09,1.08-10,3.22c-2.9,2.15-5.16,5.19-6.77,9.11-1.61,3.92-2.42,8.44-2.42,13.54s.81,9.62,2.42,13.54Z"/>
    <path class="cls-1" d="M120.57,34.01c3.31,1.83,5.87,4.39,7.7,7.7,1.83,3.31,2.74,7.11,2.74,11.41s-.91,8.18-2.74,11.49c-1.83,3.31-4.39,5.87-7.7,7.7-3.31,1.83-7.13,2.74-11.49,2.74h-12.5v24.43h-11.29V31.27h23.78c4.35,0,8.18.91,11.49,2.74ZM116.3,62.63c2.28-2.26,3.43-5.43,3.43-9.51s-1.14-7.26-3.43-9.51c-2.28-2.26-5.47-3.39-9.55-3.39h-10.16v25.8h10.16c4.08,0,7.27-1.13,9.55-3.39Z"/>
    <path class="cls-1" d="M171.55,34.01c3.31,1.83,5.87,4.39,7.7,7.7,1.83,3.31,2.74,7.11,2.74,11.41s-.91,8.18-2.74,11.49c-1.83,3.31-4.39,5.87-7.7,7.7-3.31,1.83-7.13,2.74-11.49,2.74h-12.5v24.43h-11.29V31.27h23.78c4.35,0,8.18.91,11.49,2.74ZM167.27,62.63c2.28-2.26,3.43-5.43,3.43-9.51s-1.14-7.26-3.43-9.51c-2.28-2.26-5.47-3.39-9.55-3.39h-10.16v25.8h10.16c4.08,0,7.27-1.13,9.55-3.39Z"/>
    <path class="cls-1" d="M242.35,83.67c-2.55,5.32-6.14,9.47-10.76,12.46-4.62,2.98-9.92,4.47-15.88,4.47s-11.26-1.49-15.88-4.47c-4.62-2.98-8.21-7.13-10.76-12.46-2.55-5.32-3.83-11.42-3.83-18.3s1.28-12.98,3.83-18.3c2.55-5.32,6.14-9.47,10.76-12.46,4.62-2.98,9.92-4.47,15.88-4.47s11.26,1.49,15.88,4.47c4.62,2.98,8.21,7.13,10.76,12.46,2.55,5.32,3.83,11.42,3.83,18.3s-1.28,12.98-3.83,18.3ZM198.94,78.91c1.61,3.92,3.87,6.96,6.77,9.11,2.9,2.15,6.23,3.22,10,3.22s7.09-1.07,10-3.22c2.9-2.15,5.16-5.19,6.77-9.11,1.61-3.92,2.42-8.44,2.42-13.54s-.81-9.62-2.42-13.54c-1.61-3.92-3.87-6.96-6.77-9.11-2.9-2.15-6.24-3.22-10-3.22s-7.09,1.08-10,3.22c-2.9,2.15-5.16,5.19-6.77,9.11-1.61,3.92-2.42,8.44-2.42,13.54s.81,9.62,2.42,13.54Z"/>
  </g>
</svg>