<?xml version="1.0" encoding="UTF-8"?>
<svg id="ALL" xmlns="http://www.w3.org/2000/svg" viewBox="0 0 265.26 130.74">
  <defs>
    <style>
      .cls-1 {
        fill: #242129;
      }
    </style>
  </defs>
  <path id="XIAOMI" class="cls-1" d="M178.39,0h-91.52c-10.84,0-19.61,8.78-19.61,19.61v91.52c0,10.84,8.78,19.61,19.61,19.61h91.52c10.84,0,19.61-8.78,19.61-19.61V19.61c0-10.84-8.78-19.61-19.61-19.61ZM128.63,89.23c0,.72-.59,1.31-1.31,1.31h-10.46c-.72,0-1.31-.59-1.31-1.31v-28.09c0-.72.59-1.31,1.31-1.31h10.46c.72,0,1.31.59,1.31,1.31v28.09ZM151.47,89.23c0,.72-.59,1.31-1.31,1.31h-10.46c-.72,0-1.31-.59-1.31-1.31v-29.4c0-3.61-2.93-6.54-6.54-6.54h-25.45c-.36,0-.65.29-.65.65v35.28c0,.72-.59,1.31-1.31,1.31h-10.46c-.72,0-1.31-.59-1.31-1.31v-47.7c0-.72.59-1.31,1.31-1.31h37.87c10.84,0,19.61,8.78,19.61,19.61v29.4ZM172.57,89.23c0,.72-.59,1.31-1.31,1.31h-10.46c-.72,0-1.31-.59-1.31-1.31v-47.7c0-.72.59-1.31,1.31-1.31h10.46c.72,0,1.31.59,1.31,1.31v47.7Z"/>
</svg>