<?xml version="1.0" encoding="UTF-8"?>
<svg id="Capa_1" xmlns="http://www.w3.org/2000/svg" version="1.1" viewBox="0 0 87.5 52.9">
  <!-- Generator: Adobe Illustrator 30.1.0, SVG Export Plug-In . SVG Version: 2.1.1 Build 136)  -->
  <defs>
    <style>
      .st0 {
        isolation: isolate;
      }

      .st1 {
        fill: #fff;
      }
    </style>
  </defs>
  <g class="st0">
    <path class="st1" d="M10.6,41.7c-.2,0-.3-.2-.3-.3s0-.2.2-.4c0-.1.1-.2.2-.2,0-.2.2-.6.4-1.1.1-.3.2-.5.3-.7-.6,0-1,0-1.2,0-1.2,0-2.2-.1-3.1-.4-1.2-.4-1.8-1-1.8-1.9s.1-1,.4-1.5c.5-1,1.4-1.9,2.6-2.9,1.6-1.3,3.8-2.3,6.4-3.1.5-.2.9-.3,1.2-.6.3-.3.5-.6.7-1.1.1-.3.3-.8.6-1.4.1-.3.2-.5.3-.7-.1,0-.3,0-.5-.1-.4,0-.6-.2-.8-.4,1-.4,1.8-1.2,2.4-2.1.4-.6.8-1.5,1.3-2.9.4-1,.7-1.7.9-2.2-.3.1-.5.4-.8.8,0,0-.1.1-.2.2-.3.3-.6.7-.9,1.2,0,0,0,0,0,.1-.2.2-.3.3-.4.3s-.1,0-.2,0c0,0-.1-.1-.1-.2s0-.2.2-.4h0c.5-1.1,1.2-2.1,2.2-3.1.3-.3.6-.5.9-.5s.3,0,.4.1c.2.1.4.3.4.6s0,.4-.2.7c-.2.7-.6,1.7-1.1,3.1-.3.7-.5,1.2-.6,1.5.1,0,.3-.2.4-.3.6-.4.9-.6,1.2-.8,1.2-.9,2.1-1.7,2.8-2.2,1-.8,1.8-1.7,2.4-2.6.4-.6.6-1.1.7-1.5v-.5c0-.6-.3-1-1-1h-.4c-.4,0-.9.2-1.3.4-5.1,2.1-9,5.1-11.7,9-.5.8-.9,1.7-1.2,2.6-.1.3-.2.6-.2.8,0,.3.3.5.8.5h.2c-.4.3-.7.4-1,.4s-.4,0-.6-.2c-.3-.2-.4-.5-.4-.8s0-.3,0-.6c.3-1.6,1.1-3.1,2.2-4.5,3.2-3.8,7.1-6.5,11.6-8,.4-.1.9-.2,1.5-.2s.7,0,1,0c1,.2,1.5.7,1.5,1.5s0,.5-.1.8c-.3.8-.9,1.8-1.8,2.7-1.1,1.1-2.8,2.6-5.2,4.5-.3.2-.5.4-.7.5,0,0,0,0,.1,0,1.7-.3,3-.5,3.9-.5h.2c.9,0,1.7.1,2.3.4.6.3,1,.6,1.2,1,.2.4.3,1,.3,1.9.3,0,.8-.1,1.4-.3.8-.2,1.4-.3,1.8-.3s.7,0,1,.2c-.4,0-.6.1-.8.2-1.2.3-2.2.6-3,1.1-.9.5-1.7,1.3-2.4,2.3-3.4,5-8.1,8.4-14.1,10.2-.4,0-.7.3-.8.7-.3.8-.6,1.4-.8,1.7,0,0,0,0,0,.2-.1.4-.3.6-.5.6h-.3ZM11.1,38.5c.4,0,.6-.2.8-.6.3-.6.7-1.5,1.2-2.7,1.2-2.6,2.1-4.5,2.7-5.9-1.4.4-2.5.9-3.4,1.3-1.1.5-2,1-2.9,1.7-1.6,1.2-2.7,2.4-3.2,3.7-.1.2-.2.5-.2.8,0,.7.4,1.2,1.3,1.5.8.2,1.5.3,2.2.3s1,0,1.5-.1ZM27.7,26.4c-.5.1-1.1.3-2,.4-3.6.8-6.3,1.4-8.1,1.9-.3.1-.6.4-.8.8,0,0,0,0,0,.1-.3.6-.7,1.5-1.2,2.5-1,2-1.9,4-2.8,6,6.2-2.4,11.2-6.3,14.8-11.7ZM17.5,28.2c.8-.2,2-.5,3.7-.9,2.8-.7,4.9-1.2,6.3-1.5.3,0,.6-.3.8-.7,0-.3.1-.5.1-.7,0-.5-.2-1-.6-1.3-.4-.4-1-.6-1.7-.6h-.5c-1.7,0-3.7.5-6,1.5-.3.2-.5.3-.5.5l-1.6,3.7Z"/>
    <path class="st1" d="M32.7,28.2c-.6-.5-.8-1.1-.8-1.8s.1-.9.3-1.4c.3-.9.8-1.5,1.4-2,.5-.4,1.1-.6,1.7-.6s.9.1,1.2.4c.3.2.5.5.5.8,0,.5-.4,1-1.1,1.4,0,0-.1,0-.2.1-.7.4-1.2.6-1.6.6-.2,0-.4.1-.5.3-.1.2-.2.4-.2.6,0,.3.1.7.3,1,.2.3.5.5.8.5h.3c.8,0,1.7-.3,2.8-.9.6-.3,1.5-.9,2.5-1.7.2-.2.4-.3.5-.4,0,0,.1,0,.2-.2.2-.2.4-.2.6-.2s.3,0,.6.2c-.3.2-.7.5-1.2.9-1,.8-1.8,1.3-2.3,1.6-.9.6-1.8,1-2.6,1.2-.3.1-.7.2-1.1.2-.8,0-1.4-.2-1.9-.6ZM35.7,23.9c.2-.2.3-.4.3-.5s0-.2-.3-.2c-.3,0-.6.2-.9.5-.4.4-.8.9-1,1.5.9-.3,1.5-.7,1.9-1.2Z"/>
    <path class="st1" d="M47,30.9c-.2,0-.3-.2-.3-.3s0-.1,0-.3c0,0,0-.1,0-.2.4-1,.9-2.4,1.6-4.4,1.2-3.2,2.1-5.6,2.7-7.1.1-.2.2-.6.4-1,.4-1.2.9-2.1,1.3-2.6,0,0,0,0,0-.1.2-.2.4-.4.6-.4h.2c.2.1.3.2.3.4s0,.2-.1.4c0,0,0,.1,0,.2-.2.5-.5,1.3-1,2.3-1.2,2.8-2.1,4.9-2.6,6.3,0,0,0,.2-.1.4-.2.6-.3,1-.3,1.2s0,.2.1.2.3-.1.5-.3l-.3.7c1.1-1.1,2.1-1.9,2.8-2.3.3-.2.7-.3,1-.3s.6.1.9.4c.2.2.4.5.4.8s-.1.6-.3,1c-.8,1.2-1.8,1.8-3,1.8s-.5,0-.8-.1h-.4c-.2,0-.5,0-.7.4-1,1.3-1.7,2.2-2.2,2.9,0,0,0,0,0,0-.2.2-.3.3-.4.3s-.2,0-.2,0ZM53.2,26.2c.6-.4,1-.9,1.1-1.4,0-.2,0-.3,0-.4s0-.2-.2-.3c0,0,0,0-.2,0s-.1,0-.2.1c0,0-.1,0-.2,0-.8.5-1.6,1.2-2.4,2h0c-.1.2-.2.3-.2.3h0c0,.2.1.3.4.3h.2c.5,0,1.1-.3,1.6-.7Z"/>
    <path class="st1" d="M58.6,34.2h0c0-2,.8-4.8,2.3-8.5,1.2-2.8,2.7-6.1,4.7-9.7,0,0,0-.1,0-.2.2-.4.3-.7.4-1,.1-.3.2-.5.2-.8s0-.4-.2-.4h-.3c-.2,0-.6,0-1,.3,0,0,0,0-.1,0-1,.5-2.1,1.3-3.5,2.5-1.2,1.1-2.2,2.2-2.9,3.1-.6.7-1.1,1.4-1.4,2.1.3-.2.7-.2,1-.2.6,0,1,.3,1.3.7.3.4.4.9.4,1.5s-.2,1.8-.7,2.9c-.5,1-1.2,1.9-2,2.7-.3.2-.6.4-.9.4s-.5,0-.7-.2c-.3-.2-.5-.6-.5-1.1s0-.6.1-1c0-.3.1-.5.2-.6,0-.1,0-.3.2-.4.3-.9.5-1.6.5-2.1s0-.5,0-.6v-.3c0-.2,0-.5.2-.8.3-1,1.1-2.2,2.2-3.5.8-1,1.8-1.9,2.9-2.9,1.9-1.7,3.4-2.6,4.6-2.9h.4c.5,0,.7.3.8.8l2.4-4.2c.1-.2.3-.4.6-.4s.2,0,.3,0c.1,0,.2.1.2.3s0,.2-.1.4c0,0,0,0,0,.1-.3.5-.7,1.2-1.3,2.2-.8,1.4-1.4,2.4-1.7,3.1,0,0,0,.1,0,.2-2,3.7-3.4,6.5-4.4,8.7-1.7,3.8-2.7,6.8-3.1,9.1v.4c0,.4,0,.6.3.6s.4-.1.7-.4c.9-.8,3.2-3.3,7-7.5l1.2-1.3s0,0,0,0c.3-.3.6-.5.8-.5h.2c-2.7,3.2-5.4,6.3-8.3,9.2-.7.7-1.4,1.1-1.9,1.1s-.8-.3-.8-1ZM56.8,28.3c.5-.5,1-1.1,1.3-1.8.4-.9.7-1.9.7-2.9s-.3-1.6-1-1.6h0c-.6,0-1,.5-1.3,1.5v.5c0,.2,0,.4.4.4h.2c.2,0,.4,0,.6.2h0c-.1.2-.2.4-.2.4,0,.2.1.3.4.6.2.2.3.3.4.5h0c-.1,0-.3,0-.5-.2-.2,0-.3-.1-.4-.1s-.2,0-.3.2c-.3.4-.5.9-.8,1.5-.2.6-.4,1.1-.4,1.4s0,.2,0,.2h0c.2,0,.5-.2,1-.6Z"/>
    <path class="st1" d="M72.9,34.6c-.2,0-.3-.1-.3-.3s0-.2,0-.4c.4-2,1.2-4.8,2.3-8.5.3-1,.8-2.5,1.5-4.4.3-.8.5-1.5.6-1.9l.2-.7h0c0,0-.4.5-1.1,1.5-.8,1.2-1.4,2.2-2,3.1,0,.1-.1.2-.1.3s0,.2.2.4c0,0,0,0,0,.1,0,0,0,0,.1.2.2.3.3.5.3.6s0,.3-.2.4c0,0-.2.1-.3.1s-.3,0-.6-.3c0,0-.1-.1-.2-.2l-.3-.2-2.8,3.8c-.3.5-.7.7-1,.7h-.3c-.6-.3-1-.7-1-1.4,0-2,.9-3.6,2.4-4.6.5-.3.9-.4,1.3-.4s.5,0,.8.2h.4c.2.1.5,0,.7-.4,1.6-2.3,3-4.5,4-6.5.3-.5.4-.7.5-.8.1-.2.2-.2.3-.2s.2,0,.2,0c.3,0,.4.2.4.4s0,.3-.2.5c0,.2-.1.3-.2.4-1.9,5.2-3.5,10.2-5,15.2-.1.3-.3.9-.4,1.5-.2.6-.3,1-.4,1.3,0,0,0,0,0,.2,0,.2-.1.4-.3.4h0ZM69.4,28.2c0,0,.2-.1.4-.4h0c.5-.7,1.2-1.6,2.1-2.9.2-.3.4-.6.5-.8-1.7.7-2.7,1.9-3,3.4v.5c0,0,0,.1,0,.1Z"/>
  </g>
  <g>
    <path class="st1" d="M85.8,25c0,0-.1,0-.2,0,0,0-.2,0-.2,0-.1,0-.2,0-.3,0-.4,0-.8-.1-1.2-.2-.3,0-.6,0-.8-.1,0,0,0,0,0,0,0,0-.1,0-.2,0,0,0-.2,0-.2,0-.1,0-.2,0-.3,0-.3,0-.6,0-.8-.1.2,0,0,0-.2,0,.3,0,.5,0,.1,0-.1,0-.3,0-.5,0-.4,0-.8-.1-1.3-.2-.1,0-.2,0-.4,0-.3,0-.6,0-.9-.1-.6,0-1.1-.1-1.7-.2s-1.1-.1-1.7-.2c-1.1,0-2.2-.2-3.3-.3-.6,0-1.1,0-1.6-.2-.6,0-1.1,0-1.6,0-1.1,0-2.2-.1-3.2-.2-9.3-.5-18.7-.6-28-.2h-1.8c0,0-1.8.2-1.8.2l-3.5.2c-.3,0-.6,0-.9,0h-.9c0,0-1.8.2-1.8.2h-1.8c-.6.2-1.2.2-1.7.3-4.6.4-9.3,1-13.9,1.7-1,.2-2.2.4-2.6,1,.6,0,1.1,0,1.7,0-.1,0-.2,0-.4,0,.4,0,.8,0,1.2-.2-.1,0,0,.2,0,.2s.3,0,.4,0c5.7-.6,11.4-1.2,17.1-1.6,2.9-.2,5.7-.4,8.6-.6,1.4,0,2.9-.1,4.3-.2h1.1c.4,0,.7,0,1.1,0,.7,0,1.4,0,2.2,0,7.4-.2,15.3-.2,23.8.3.5,0,1.1,0,1.6,0,.3,0,.5,0,.8,0,.3,0,.5,0,.8,0,1.1,0,2.2.2,3.3.2,1.1,0,2.2.1,3.3.2,1.1,0,2.2.2,3.4.3.3,0,.6,0,.9,0,.1,0,.2,0,.4,0,.4,0,.8,0,1.3,0,.2,0,.4,0,.5,0,.4,0,.2,0,0,0,.3,0,.4,0,.2,0,.3,0,.6,0,.9,0,.1,0,.2,0,.3,0h.2s0,0,.2,0c0,0,.2,0,.2,0s-.1,0-.2-.1h0ZM12.7,25.2c.1,0,.2,0,.3,0,.2,0,.4,0,.6,0-.3,0-.6,0-.9.1ZM15.8,25.3c-.1,0-.2,0-.3,0,.3,0,.6,0,.9-.1-.2,0-.4,0-.6,0ZM26.2,23.7c1.4-.1,2.7-.2,4.1-.3,1.3,0,2.7-.2,4-.2,8.5-.5,16.5-.6,23.9-.4,1.2,0,2.5,0,3.7,0,.6,0,1.2,0,1.8,0,.6,0,1.2,0,1.8,0-.7,0-1.4,0-2.1-.1-.3,0-.7,0-1,0-.3,0-.7,0-1,0-1.4,0-2.7,0-4,0-.4,0-.8,0-1.2,0-.4,0-.8,0-1.2,0h-6.9c-1.5,0-2.8,0-4.2,0-.7,0-1.3,0-2,0-.7,0-1.3,0-1.9,0-1,0-1.9,0-2.9.1-.5,0-1,0-1.5,0-.5,0-1,0-1.5,0-1.2,0-2.4.1-3.7.2-1.2,0-2.5.2-3.8.3h0ZM66.4,23.6c-.9,0-1.8,0-2.7-.1-.4,0-.9,0-1.4,0-.5,0-.9,0-1.4,0-1.8,0-3.7,0-5.7-.1-1.9,0-3.9,0-5.9,0h-1.5c-.5,0-1,0-1.5,0-1,0-2,0-3.1,0-.5,0-1,0-1.5,0s-1,0-1.6,0c-1,0-2.1,0-3.2.1-.7,0-1.3,0-2,0s-1.3,0-2,.1c-.7,0-1.3,0-2,.1h-1c-.3,0-.7.1-1,.1.3,0,.6,0,1,0s.6,0,1,0c.6,0,1.3,0,1.9-.1,1.2,0,2.5-.2,3.7-.2,1.3,0,2.5-.1,3.7-.2.5,0,1,0,1.6,0,.5,0,1.1,0,1.6,0,1.1,0,2.2,0,3.4,0s2.4,0,3.6,0h4.7c.3,0,.6,0,.9,0,.6,0,1.2,0,1.8,0,1.2,0,2.4,0,3.7,0,.3,0,.6,0,.9,0,.3,0,.6,0,.9,0,.6,0,1.3,0,1.9,0,1.3,0,2.6.1,4,.2.2,0,.5,0,.7,0s.5,0,.7,0c0,0,.1,0,.2,0-1.5,0-3-.2-4.6-.2h0ZM71.6,23.9c-.2,0-.3,0-.5,0,.4,0,.7,0,1.1,0-.2,0-.4,0-.6,0Z"/>
    <path class="st1" d="M-1.5,28.8c-.1,1.6,7.6-2.3,7.6-2.3h-1.5s-6,.7-6.1,2.3Z"/>
  </g>
</svg>